<svg width="1245" height="210" viewBox="0 0 1245 210" fill="none" xmlns="http://www.w3.org/2000/svg">
<path d="M95.7891 0C110.573 0 122.559 12.0328 122.559 26.876C122.559 37.9247 121.529 48.9495 119.483 59.8057C118.842 63.2067 117.191 66.3346 114.753 68.7822C112.314 71.2304 109.195 72.8823 105.807 73.5254L74.0254 79.5684L105.812 85.6016C109.198 86.245 112.316 87.8989 114.753 90.3447C117.19 92.7926 118.843 95.9264 119.483 99.3271L125.497 131.24L131.506 99.3271C132.146 95.9252 133.792 92.7929 136.23 90.3447C138.669 87.8967 141.788 86.2448 145.177 85.6016L176.963 79.5635L145.177 73.5312C141.79 72.8883 138.669 71.2289 136.23 68.7822C133.794 66.3352 132.147 63.2052 131.506 59.8057C129.467 48.9777 128.441 37.9817 128.441 26.9619C128.441 12.0715 140.465 0.000109707 155.296 0H251L125.5 210L0 0H95.7891Z" fill="black"/>
<path d="M1055.14 32.2002C1062.74 32.2002 1069.94 33.2002 1076.74 35.2002C1083.68 37.2002 1089.94 39.9337 1095.54 43.4004C1101.28 46.8671 1106.01 50.8002 1109.74 55.2002L1088.74 77.2002C1083.94 72.6669 1078.74 69.1329 1073.14 66.5996C1067.68 63.9329 1061.48 62.5996 1054.54 62.5996C1048.81 62.5996 1043.48 63.6665 1038.54 65.7998C1033.74 67.7998 1029.48 70.7331 1025.74 74.5996C1022.14 78.3329 1019.34 82.8001 1017.34 88C1015.34 93.0666 1014.34 98.5998 1014.34 104.6C1014.34 110.6 1015.41 116.134 1017.54 121.2C1019.68 126.267 1022.61 130.733 1026.34 134.6C1030.21 138.333 1034.68 141.267 1039.74 143.4C1044.81 145.534 1050.28 146.6 1056.14 146.6C1060.28 146.6 1064.08 146 1067.54 144.8C1071.14 143.466 1074.28 141.733 1076.94 139.6C1079.74 137.333 1081.88 134.733 1083.34 131.8C1084.69 129.209 1085.47 126.476 1085.68 123.6H1051.94V96.5996H1117.74C1118.01 98.0662 1118.21 100.066 1118.34 102.6C1118.48 105.133 1118.54 107.6 1118.54 110C1118.68 112.267 1118.74 114.067 1118.74 115.4C1118.74 124.467 1117.08 132.8 1113.74 140.4C1110.54 147.867 1105.94 154.333 1099.94 159.8C1094.08 165.266 1087.14 169.533 1079.14 172.6C1071.14 175.533 1062.48 177 1053.14 177C1041.94 177 1031.81 175.2 1022.74 171.6C1013.81 168 1006.08 162.934 999.542 156.4C993.009 149.867 988.009 142.2 984.542 133.4C981.075 124.6 979.343 115 979.343 104.6C979.343 94.1998 981.209 84.5997 984.942 75.7998C988.676 66.9999 993.875 59.3331 1000.54 52.7998C1007.34 46.2665 1015.34 41.1996 1024.54 37.5996C1033.88 33.9996 1044.08 32.2002 1055.14 32.2002Z" fill="black"/>
<path d="M348.4 105.6C350 109.733 351.334 113.4 352.4 116.6C353.6 119.8 354.6 122.8 355.4 125.6C356.117 127.646 356.793 129.732 357.431 131.857C357.555 131.431 357.678 131.012 357.8 130.6C358.866 127 360.067 123.267 361.4 119.4C362.734 115.534 364.4 110.933 366.4 105.6L392.2 35H427L370.8 175H342L286 35H321.6L348.4 105.6Z" fill="black"/>
<path fill-rule="evenodd" clip-rule="evenodd" d="M552.525 175H518.125L508.085 148.2H456.746L446.725 175H413.125L468.525 35H497.525L552.525 175ZM482.611 76.6553C481.768 79.5032 480.874 82.3523 479.925 85.2002C478.858 88.4 477.725 91.6 476.525 94.7998C475.459 97.8665 474.325 101.067 473.125 104.4L466.469 122.2H498.344L491.525 104C490.592 101.2 489.525 98.2 488.325 95C487.259 91.8 486.192 88.4667 485.125 85C484.241 82.1269 483.404 79.3452 482.611 76.6553Z" fill="black"/>
<path d="M666.402 124.257C665.954 120.41 665.545 116.724 665.178 113.2C664.511 106.667 664.045 99.8665 663.778 92.7998C663.645 85.7333 663.578 77.6001 663.578 68.4004V35H696.778V175H665.778L600.718 87.458C600.963 89.7555 601.185 91.8692 601.378 93.7998C601.911 99.133 602.311 103.733 602.578 107.6C602.845 111.333 603.044 114.867 603.178 118.2C603.311 121.4 603.378 125 603.378 129V175H569.979V35H600.578L666.402 124.257Z" fill="black"/>
<path d="M838.701 65.2002H796.102V175H761.901V65.2002H720.702V35H838.701V65.2002Z" fill="black"/>
<path fill-rule="evenodd" clip-rule="evenodd" d="M974.596 175H940.195L930.155 148.2H878.816L868.795 175H835.195L890.596 35H919.596L974.596 175ZM904.682 76.6553C903.838 79.5032 902.944 82.3523 901.995 85.2002C900.929 88.4 899.796 91.6 898.596 94.7998C897.529 97.8665 896.395 101.067 895.195 104.4L888.539 122.2H920.414L913.596 104C912.662 101.2 911.595 98.2 910.396 95C909.329 91.8 908.262 88.4667 907.195 85C906.311 82.1269 905.474 79.3452 904.682 76.6553Z" fill="black"/>
<path d="M1241.99 64.2002H1177.79V89.7998H1233.19V117.8H1177.79V145.8H1244.19V175H1144.39V35H1241.99V64.2002Z" fill="black"/>
</svg>
